<svg xmlns="http://www.w3.org/2000/svg" xmlns:xlink="http://www.w3.org/1999/xlink" viewBox="0 0 1469.96 788.54"><defs><style>.a{isolation:isolate;}.b{fill:url(#a);}.c,.d{mix-blend-mode:screen;}.c{fill:url(#b);}.d{fill:url(#c);}.e,.f{opacity:0.21;}.e,.f,.g{mix-blend-mode:multiply;}.e{fill:url(#d);}.f{fill:url(#e);}.g{opacity:0.2;fill:url(#f);}.h{opacity:0.65;fill:url(#g);}.h,.i,.j{mix-blend-mode:overlay;}.i{opacity:0.19;fill:url(#h);}.j{opacity:0.22;fill:url(#i);}</style><radialGradient id="a" cx="734.98" cy="394.27" r="589.76" gradientUnits="userSpaceOnUse"><stop offset="0.32" stop-color="#96d8ea"/><stop offset="0.35" stop-color="#8cd4e9"/><stop offset="0.4" stop-color="#72c9e6"/><stop offset="0.46" stop-color="#47b8e2"/><stop offset="0.53" stop-color="#10a2dc"/><stop offset="0.79" stop-color="#053e81"/><stop offset="1" stop-color="#000029"/></radialGradient><radialGradient id="b" cx="411.84" cy="334.94" r="343.84" xlink:href="#a"/><radialGradient id="c" cx="1346.61" cy="302.31" r="230.88" xlink:href="#a"/><radialGradient id="d" cx="793.21" cy="386.55" r="526.39" xlink:href="#a"/><radialGradient id="e" cx="834.68" cy="394.27" r="402.01" xlink:href="#a"/><radialGradient id="f" cx="734.98" cy="543.95" r="530.81" xlink:href="#a"/><radialGradient id="g" cx="1033.98" cy="394.27" r="315.97" xlink:href="#a"/><radialGradient id="h" cx="840.18" cy="531.21" r="338.76" xlink:href="#a"/><radialGradient id="i" cx="622.14" cy="437.23" r="505.21" xlink:href="#a"/></defs><title>Fractals</title><g class="a"><polygon class="b" points="358.63 719.56 268.52 686.26 0 593.46 116.46 76.42 823.68 85.92 1223.27 0 1469.96 391.22 1297.05 604.63 1244.28 788.54 425.08 696.67 358.63 719.56"/><polygon class="c" points="116.46 76.42 0 593.46 823.68 85.92 116.46 76.42"/><polygon class="d" points="1223.27 0 1297.05 604.63 1469.96 391.22 1223.27 0"/><polygon class="e" points="1469.96 391.22 425.08 696.67 116.46 76.42 1469.96 391.22"/><polygon class="f" points="1223.27 0 425.08 696.67 1244.28 788.54 1223.27 0"/><polygon class="g" points="0 593.46 425.08 696.67 1469.96 391.22 0 593.46"/><polygon class="h" points="1244.28 788.54 823.68 85.92 1223.27 0 1244.28 788.54"/><polygon class="i" points="538.03 711.1 436.08 273.87 1244.28 788.54 538.03 711.1"/><polygon class="j" points="823.68 85.92 0 593.46 1244.28 788.54 823.68 85.92"/></g></svg>